# This file uses centimeters as units for non-parametric coordinates.

mtllib OutsideCage.mtl
g default
v 2.450446 3.500000 0.421264
v 2.450446 3.500000 -0.421264
v 2.450446 0.500000 -0.421264
v 2.450446 0.500000 0.421264
v -2.450446 3.500000 0.421264
v -2.450446 3.500000 -0.421264
v -2.450446 0.500000 -0.421264
v -2.450446 0.500000 0.421264
v 2.450446 3.438339 0.500000
v -2.450446 3.438339 0.500000
v -2.500000 3.438339 0.421264
v -2.500000 3.438339 -0.421264
v -2.450446 3.438339 -0.500000
v 2.450446 3.438339 -0.500000
v 2.500000 3.438339 -0.421264
v 2.500000 3.438339 0.421264
v 2.450446 0.561661 0.500000
v -2.450446 0.561661 0.500000
v -2.500000 0.561661 0.421264
v -2.500000 0.561661 -0.421264
v -2.450446 0.561661 -0.500000
v 2.450446 0.561661 -0.500000
v 2.500000 0.561661 -0.421264
v 2.500000 0.561661 0.421264
v -2.534005 0.465995 0.534005
v -2.450446 0.458352 0.541648
v -2.450446 0.561661 0.558899
v -2.541648 0.561661 0.541648
v -2.534005 3.534005 0.534005
v -2.450446 3.541648 0.541648
v -2.450446 3.558899 0.421264
v -2.541648 3.541648 0.421264
v -2.541648 0.561661 -0.541648
v -2.450446 0.561661 -0.558899
v -2.450446 0.458352 -0.541648
v -2.534005 0.465995 -0.534005
v -2.541648 0.458352 0.421264
v -2.450446 0.441101 0.421264
v 2.541648 0.458352 0.421264
v 2.534005 0.465995 0.534005
v 2.558899 0.561661 0.421264
v 2.541648 0.561661 0.541648
v -2.558899 0.561661 0.421264
v -2.450446 3.558899 -0.421264
v -2.541648 3.541648 -0.421264
v -2.450446 3.541648 -0.541648
v -2.534005 3.534005 -0.534005
v -2.541648 0.458352 -0.421264
v -2.558899 0.561661 -0.421264
v -2.450446 0.441101 -0.421264
v 2.541648 0.458352 -0.421264
v 2.558899 0.561661 -0.421264
v 2.534005 0.465995 -0.534005
v 2.541648 0.561661 -0.541648
v 2.450446 3.541648 0.541648
v 2.534005 3.534005 0.534005
v 2.541648 3.541648 0.421264
v 2.450446 3.558899 0.421264
v 2.450446 3.558899 -0.421264
v 2.541648 3.541648 -0.421264
v 2.450446 3.541648 -0.541648
v 2.534005 3.534005 -0.534005
v 2.450446 0.561661 -0.558899
v 2.450446 0.458352 -0.541648
v 2.450446 0.441101 -0.421264
v 2.450446 0.441101 0.421264
v 2.450446 0.458352 0.541648
v 2.450446 0.561661 0.558899
v 2.450446 3.438339 0.558899
v 2.541648 3.438339 0.541648
v -2.450446 3.438339 0.558899
v -2.541648 3.438339 0.541648
v -2.558899 3.438339 0.421264
v -2.558899 3.438339 -0.421264
v -2.541648 3.438339 -0.541648
v -2.450446 3.438339 -0.558899
v 2.450446 3.438339 -0.558899
v 2.541648 3.438339 -0.541648
v 2.558899 3.438339 -0.421264
v 2.558899 3.438339 0.421264
vt 0.764959 0.521081
vt 0.776373 0.520307
vt 0.776373 0.530766
vt 0.764186 0.530766
vt 0.861671 0.520307
vt 0.861671 0.530766
vt 0.776373 0.822002
vt 0.764186 0.822002
vt 0.873085 0.521081
vt 0.873859 0.530766
vt 0.776373 0.832461
vt 0.764959 0.831687
vt 0.861671 0.822002
vt 0.873859 0.822002
vt 0.861671 0.832461
vt 0.873085 0.831687
vt 0.746340 0.520307
vt 0.757754 0.521081
vt 0.758528 0.530766
vt 0.746340 0.530766
vt 0.758528 0.822002
vt 0.746340 0.822002
vt 0.661042 0.520307
vt 0.661042 0.530766
vt 0.757754 0.831687
vt 0.746340 0.832461
vt 0.649628 0.521081
vt 0.648855 0.530766
vt 0.661042 0.822002
vt 0.661042 0.832461
vt 0.648855 0.822002
vt 0.649628 0.831687
vt 0.544267 0.605605
vt 0.544267 0.520307
vt 0.550230 0.520307
vt 0.550230 0.605605
vt 0.526989 0.520307
vt 0.526989 0.605605
vt 0.521026 0.605605
vt 0.521026 0.520307
vt 0.497784 0.605605
vt 0.497784 0.520307
vt 0.503747 0.520307
vt 0.503747 0.605605
vt 0.492126 0.520307
vt 0.492126 0.605605
vt 0.486163 0.605605
vt 0.486163 0.520307
vt 0.637234 0.811543
vt 0.637234 0.520307
vt 0.643197 0.520307
vt 0.643197 0.811543
vt 0.631576 0.520307
vt 0.631576 0.811543
vt 0.625613 0.811543
vt 0.625613 0.520307
vt 0.590751 0.811543
vt 0.590751 0.520307
vt 0.596713 0.520307
vt 0.596713 0.811543
vt 0.585093 0.520307
vt 0.585093 0.811543
vt 0.579130 0.811543
vt 0.579130 0.520307
vt 0.320910 0.515852
vt 0.320136 0.507393
vt 0.332324 0.507393
vt 0.332324 0.516626
vt 0.320136 0.011225
vt 0.332324 0.011225
vt 0.417621 0.507393
vt 0.417621 0.516626
vt 0.320910 0.002766
vt 0.332324 0.001992
vt 0.429809 0.507393
vt 0.429035 0.515852
vt 0.417621 0.011225
vt 0.417621 0.001992
vt 0.429809 0.011225
vt 0.429035 0.002766
vt 0.852564 0.516626
vt 0.852564 0.507393
vt 0.864752 0.507393
vt 0.863978 0.515852
vt 0.767266 0.516626
vt 0.767266 0.507393
vt 0.852564 0.011225
vt 0.864752 0.011225
vt 0.755852 0.515852
vt 0.755078 0.507393
vt 0.852564 0.001992
vt 0.863978 0.002766
vt 0.755078 0.011225
vt 0.767266 0.011225
vt 0.767266 0.001992
vt 0.755852 0.002766
vt 0.538609 0.520307
vt 0.538609 0.605605
vt 0.532646 0.605605
vt 0.532646 0.520307
vt 0.509405 0.605605
vt 0.509405 0.520307
vt 0.515368 0.520307
vt 0.515368 0.605605
vt 0.897064 0.498160
vt 0.897064 0.001992
vt 0.903027 0.001992
vt 0.903027 0.498160
vt 0.908721 0.501840
vt 0.908721 0.998008
vt 0.902758 0.998008
vt 0.902758 0.501840
vt 0.891137 0.998008
vt 0.891137 0.501840
vt 0.897100 0.501840
vt 0.897100 0.998008
vt 0.480505 0.520307
vt 0.480505 0.605605
vt 0.474542 0.605605
vt 0.474542 0.520307
vt 0.885480 0.501840
vt 0.885480 0.998008
vt 0.879517 0.998008
vt 0.879517 0.501840
vt 0.462921 0.605605
vt 0.462921 0.520307
vt 0.468884 0.520307
vt 0.468884 0.605605
vt 0.002611 0.515852
vt 0.001837 0.507393
vt 0.012296 0.507393
vt 0.012296 0.516626
vt 0.001837 0.011225
vt 0.012296 0.011225
vt 0.303532 0.507393
vt 0.303532 0.516626
vt 0.002611 0.002766
vt 0.012296 0.001992
vt 0.313991 0.507393
vt 0.313217 0.515852
vt 0.303532 0.011225
vt 0.303532 0.001992
vt 0.313991 0.011225
vt 0.313217 0.002766
vt 0.738654 0.516626
vt 0.738654 0.507393
vt 0.749113 0.507393
vt 0.748339 0.515852
vt 0.447418 0.516626
vt 0.447418 0.507393
vt 0.738654 0.011225
vt 0.749113 0.011225
vt 0.437733 0.515852
vt 0.436959 0.507393
vt 0.738654 0.001992
vt 0.748339 0.002766
vt 0.447418 0.011225
vt 0.436959 0.011225
vt 0.447418 0.001992
vt 0.437733 0.002766
vt 0.877865 0.001992
vt 0.877865 0.498160
vt 0.871902 0.498160
vt 0.871902 0.001992
vt 0.884483 0.498160
vt 0.884483 0.001992
vt 0.890446 0.001992
vt 0.890446 0.498160
vt 0.915608 0.001992
vt 0.915608 0.498160
vt 0.909645 0.498160
vt 0.909645 0.001992
vt 0.914379 0.998008
vt 0.914379 0.501840
vt 0.920342 0.501840
vt 0.920342 0.998008
vt 0.619955 0.520307
vt 0.619955 0.811543
vt 0.613992 0.811543
vt 0.613992 0.520307
vt 0.608334 0.520307
vt 0.608334 0.811543
vt 0.602371 0.811543
vt 0.602371 0.520307
vt 0.567509 0.811543
vt 0.567509 0.520307
vt 0.573472 0.520307
vt 0.573472 0.811543
vt 0.555888 0.811543
vt 0.555888 0.520307
vt 0.561851 0.520307
vt 0.561851 0.811543
vn -0.145353 -0.128318 0.981023
vn -0.002348 -0.164148 0.986433
vn -0.064945 -0.109324 0.991882
vn -0.184660 -0.003955 0.982795
vn -0.144872 0.983344 0.109755
vn -0.002352 0.989956 0.141358
vn -0.023458 0.991813 0.125529
vn -0.181342 0.983341 0.012440
vn -0.184660 -0.003955 -0.982795
vn -0.064945 -0.109324 -0.991882
vn -0.002348 -0.164148 -0.986433
vn -0.145353 -0.128318 -0.981023
vn -0.181340 -0.983342 0.012440
vn -0.023458 -0.991813 0.125527
vn -0.002352 -0.989956 0.141355
vn -0.144872 -0.983344 0.109753
vn 0.985777 -0.127533 0.109445
vn 0.986944 -0.160582 0.012465
vn 0.992882 -0.035742 0.113615
vn 0.990019 -0.003973 0.140881
vn -0.986944 -0.160582 0.012465
vn -0.985777 -0.127534 0.109445
vn -0.990019 -0.003973 0.140881
vn -0.992882 -0.035742 0.113615
vn -0.181342 0.983341 -0.012440
vn -0.023458 0.991813 -0.125529
vn -0.002352 0.989956 -0.141358
vn -0.144872 0.983344 -0.109755
vn -0.985777 -0.127533 -0.109444
vn -0.986944 -0.160582 -0.012465
vn -0.992882 -0.035742 -0.113613
vn -0.990019 -0.003973 -0.140879
vn -0.144872 -0.983345 -0.109754
vn -0.002352 -0.989956 -0.141355
vn -0.023458 -0.991813 -0.125527
vn -0.181340 -0.983342 -0.012440
vn 0.992882 -0.035742 -0.113613
vn 0.986944 -0.160582 -0.012465
vn 0.985777 -0.127534 -0.109444
vn 0.990019 -0.003973 -0.140879
vn 0.002352 0.989956 0.141358
vn 0.144872 0.983345 0.109753
vn 0.181342 0.983342 0.012439
vn 0.023458 0.991813 0.125529
vn 0.023458 0.991813 -0.125529
vn 0.181341 0.983342 -0.012439
vn 0.002352 0.989956 -0.141357
vn 0.144871 0.983345 -0.109752
vn 0.002348 -0.164148 -0.986433
vn 0.064945 -0.109324 -0.991882
vn 0.184660 -0.003955 -0.982795
vn 0.145352 -0.128318 -0.981023
vn 0.023457 -0.991813 -0.125527
vn 0.002352 -0.989956 -0.141355
vn 0.144871 -0.983345 -0.109754
vn 0.181340 -0.983342 -0.012440
vn 0.023458 -0.991813 0.125527
vn 0.181340 -0.983342 0.012440
vn 0.002352 -0.989956 0.141355
vn 0.144872 -0.983344 0.109754
vn 0.064945 -0.109324 0.991882
vn 0.002348 -0.164148 0.986433
vn 0.145352 -0.128318 0.981023
vn 0.184660 -0.003955 0.982795
vn 0.002348 0.164148 0.986433
vn 0.064945 0.109324 0.991882
vn 0.184660 0.003955 0.982795
vn 0.145352 0.128319 0.981024
vn -0.002348 0.164148 0.986433
vn -0.064945 0.109324 0.991882
vn -0.184660 0.003955 0.982795
vn -0.145353 0.128319 0.981023
vn -0.992882 0.035742 0.113615
vn -0.990019 0.003973 0.140881
vn -0.985777 0.127534 0.109445
vn -0.986944 0.160582 0.012465
vn -0.992882 0.035742 -0.113613
vn -0.986944 0.160582 -0.012465
vn -0.990019 0.003973 -0.140879
vn -0.985778 0.127534 -0.109444
vn -0.145353 0.128319 -0.981023
vn -0.002348 0.164148 -0.986433
vn -0.064945 0.109324 -0.991882
vn -0.184660 0.003955 -0.982795
vn 0.064945 0.109324 -0.991882
vn 0.002348 0.164148 -0.986433
vn 0.184660 0.003955 -0.982795
vn 0.145352 0.128319 -0.981024
vn 0.986944 0.160582 -0.012465
vn 0.992882 0.035742 -0.113613
vn 0.990019 0.003973 -0.140879
vn 0.985777 0.127534 -0.109444
vn 0.986944 0.160582 0.012465
vn 0.992882 0.035742 0.113615
vn 0.990019 0.003973 0.140881
vn 0.985777 0.127534 0.109445
vn 1.000000 0.000000 0.000000
vn 1.000000 0.000000 0.000000
vn 1.000000 0.000000 0.000000
vn 1.000000 0.000000 0.000000
vn 0.000000 1.000000 0.000000
vn 0.000000 1.000000 0.000000
vn 0.000000 1.000000 0.000000
vn 0.000000 1.000000 0.000000
vn 1.000000 0.000000 0.000000
vn 1.000000 0.000000 0.000000
vn 1.000000 0.000000 0.000000
vn 1.000000 0.000000 0.000000
vn 0.000000 1.000000 0.000000
vn 0.000000 1.000000 0.000000
vn 0.000000 1.000000 0.000000
vn 0.000000 1.000000 0.000000
vn -1.000000 0.000000 0.000000
vn -1.000000 0.000000 0.000000
vn -1.000000 0.000000 0.000000
vn -1.000000 0.000000 0.000000
vn -1.000000 0.000000 0.000000
vn -1.000000 0.000000 0.000000
vn -1.000000 0.000000 0.000000
vn -1.000000 0.000000 0.000000
vn 0.000000 0.000000 -1.000000
vn 0.000000 0.000000 -1.000000
vn 0.000000 0.000000 -1.000000
vn 0.000000 0.000000 -1.000000
vn 0.000000 0.000000 1.000000
vn 0.000000 0.000000 1.000000
vn 0.000000 0.000000 1.000000
vn 0.000000 0.000000 1.000000
vn 0.000000 1.000000 0.000000
vn 0.000000 1.000000 0.000000
vn 0.000000 1.000000 0.000000
vn 0.000000 1.000000 0.000000
vn 0.000000 0.000000 1.000000
vn 0.000000 0.000000 1.000000
vn 0.000000 0.000000 1.000000
vn 0.000000 0.000000 1.000000
vn 0.000000 0.000000 -1.000000
vn 0.000000 0.000000 -1.000000
vn 0.000000 0.000000 -1.000000
vn 0.000000 0.000000 -1.000000
vn 0.000000 1.000000 0.000000
vn 0.000000 1.000000 0.000000
vn 0.000000 1.000000 0.000000
vn 0.000000 1.000000 0.000000
vn 0.000000 -1.000000 0.000000
vn 0.000000 -1.000000 0.000000
vn 0.000000 -1.000000 0.000000
vn 0.000000 -1.000000 0.000000
vn 0.000000 -1.000000 0.000000
vn 0.000000 -1.000000 0.000000
vn 0.000000 -1.000000 0.000000
vn 0.000000 -1.000000 0.000000
vn 0.000000 -1.000000 0.000000
vn 0.000000 -1.000000 0.000000
vn 0.000000 -1.000000 0.000000
vn 0.000000 -1.000000 0.000000
vn 0.000000 -1.000000 0.000000
vn 0.000000 -1.000000 0.000000
vn 0.000000 -1.000000 0.000000
vn 0.000000 -1.000000 0.000000
vn -1.000000 0.000000 0.000000
vn -1.000000 0.000000 0.000000
vn -1.000000 0.000000 0.000000
vn -1.000000 0.000000 0.000000
vn 1.000000 0.000000 0.000000
vn 1.000000 0.000000 0.000000
vn 1.000000 0.000000 0.000000
vn 1.000000 0.000000 0.000000
vn 0.000000 0.000000 -1.000000
vn 0.000000 0.000000 -1.000000
vn 0.000000 0.000000 -1.000000
vn 0.000000 0.000000 -1.000000
vn 0.000000 0.000000 1.000000
vn 0.000000 0.000000 1.000000
vn 0.000000 0.000000 1.000000
vn 0.000000 0.000000 1.000000
vn 1.000000 0.000000 0.000000
vn 1.000000 0.000000 0.000000
vn 1.000000 0.000000 0.000000
vn 1.000000 0.000000 0.000000
vn -1.000000 0.000000 0.000000
vn -1.000000 0.000000 0.000000
vn -1.000000 0.000000 0.000000
vn -1.000000 0.000000 0.000000
vn 0.000000 0.000000 1.000000
vn 0.000000 0.000000 1.000000
vn 0.000000 0.000000 1.000000
vn 0.000000 0.000000 1.000000
vn 0.000000 0.000000 -1.000000
vn 0.000000 0.000000 -1.000000
vn 0.000000 0.000000 -1.000000
vn 0.000000 0.000000 -1.000000
s 1
g pCube2
usemtl initialShadingGroup
f 25/129/1 26/130/2 27/131/3 28/132/4
s 2
f 29/65/5 30/66/6 31/67/7 32/68/8
s 3
f 33/145/9 34/146/10 35/147/11 36/148/12
s 4
f 37/81/13 38/82/14 26/83/15 25/84/16
s 5
f 40/1/17 39/2/18 41/3/19 42/4/20
s 6
f 37/17/21 25/18/22 28/19/23 43/20/24
s 2
f 45/72/25 44/71/26 46/75/27 47/76/28
s 6
f 36/27/29 48/23/30 49/24/31 33/28/32
s 4
f 36/89/33 35/90/34 50/86/35 48/85/36
s 5
f 52/6/37 51/5/38 53/9/39 54/10/40
s 2
f 32/68/8 31/67/7 44/71/26 45/72/25
s 6
f 48/23/30 37/17/21 43/20/24 49/24/31
s 4
f 48/85/36 50/86/35 38/82/14 37/81/13
s 5
f 41/3/19 39/2/18 51/5/38 52/6/37
s 2
f 55/69/41 56/73/42 57/74/43 58/70/44
f 59/77/45 58/70/44 57/74/43 60/78/46
f 61/79/47 59/77/45 60/78/46 62/80/48
s 3
f 64/152/49 63/151/50 54/155/51 53/156/52
s 4
f 65/94/53 64/93/54 53/96/55 51/95/56
f 66/87/57 65/94/53 51/95/56 39/91/58
f 67/88/59 66/87/57 39/91/58 40/92/60
s 1
f 68/134/61 67/133/62 40/137/63 42/138/64
s 2
f 30/66/6 55/69/41 58/70/44 31/67/7
f 46/75/27 44/71/26 59/77/45 61/79/47
s 3
f 35/147/11 34/146/10 63/151/50 64/152/49
s 4
f 50/86/35 35/90/34 64/93/54 65/94/53
f 26/83/15 38/82/14 66/87/57 67/88/59
s 1
f 27/131/3 26/130/2 67/133/62 68/134/61
f 55/143/65 69/141/66 70/142/67 56/144/68
f 30/139/69 71/135/70 69/141/66 55/143/65
f 72/136/71 71/135/70 30/139/69 29/140/72
s 6
f 73/22/73 72/21/74 29/25/75 32/26/76
f 74/29/77 73/22/73 32/26/76 45/30/78
f 75/31/79 74/29/77 45/30/78 47/32/80
s 3
f 47/153/81 46/154/82 76/150/83 75/149/84
f 77/157/85 76/150/83 46/154/82 61/158/86
f 78/159/87 77/157/85 61/158/86 62/160/88
s 5
f 60/15/89 79/13/90 78/14/91 62/16/92
f 57/11/93 80/7/94 79/13/90 60/15/89
f 70/8/95 80/7/94 57/11/93 56/12/96
s 1
f 69/141/66 68/134/61 42/138/64 70/142/67
f 28/132/4 27/131/3 71/135/70 72/136/71
s 6
f 43/20/24 28/19/23 72/21/74 73/22/73
f 33/28/32 49/24/31 74/29/77 75/31/79
s 3
f 75/149/84 76/150/83 34/146/10 33/145/9
f 54/155/51 63/151/50 77/157/85 78/159/87
s 5
f 79/13/90 52/6/37 54/10/40 78/14/91
f 42/4/20 41/3/19 80/7/94 70/8/95
s off
f 5/33/97 6/34/98 44/35/99 31/36/100
f 19/97/101 20/98/102 49/99/103 43/100/104
f 7/37/105 8/38/106 38/39/107 50/40/108
f 23/101/109 24/102/110 41/103/111 52/104/112
f 2/41/113 1/42/114 58/43/115 59/44/116
f 4/45/117 3/46/118 65/47/119 66/48/120
f 1/161/121 5/162/122 31/163/123 58/164/124
f 6/165/125 2/166/126 59/167/127 44/168/128
f 21/105/129 22/106/130 63/107/131 34/108/132
f 3/169/133 7/170/134 50/171/135 65/172/136
f 8/173/137 4/174/138 66/175/139 38/176/140
f 17/109/141 18/110/142 27/111/143 68/112/144
f 10/113/145 9/114/146 69/115/147 71/116/148
f 12/117/149 11/118/150 73/119/151 74/120/152
f 14/121/153 13/122/154 76/123/155 77/124/156
f 16/125/157 15/126/158 79/127/159 80/128/160
f 9/49/161 17/50/162 68/51/163 69/52/164
f 18/53/165 10/54/166 71/55/167 27/56/168
f 11/177/169 19/178/170 43/179/171 73/180/172
f 20/181/173 12/182/174 74/183/175 49/184/176
f 13/57/177 21/58/178 34/59/179 76/60/180
f 22/61/181 14/62/182 77/63/183 63/64/184
f 15/185/185 23/186/186 52/187/187 79/188/188
f 24/189/189 16/190/190 80/191/191 41/192/192
